<?xml version="1.0" standalone="no"?><!DOCTYPE svg PUBLIC "-//W3C//DTD SVG 1.1//EN" "http://www.w3.org/Graphics/SVG/1.1/DTD/svg11.dtd"><svg class="icon" width="200px" height="112.53px" viewBox="0 0 1820 1024" version="1.1" xmlns="http://www.w3.org/2000/svg"><path fill="#333333" d="M1193.528889 949.854815H1197.700741c38.4-0.18963 70.921481-0.474074 94.814815-0.948148 0-60.112593-11.757037-119.940741-33.65926-174.743704-0.568889-1.327407-1.042963-2.654815-1.611852-3.982222-4.361481-10.619259-9.102222-21.048889-14.222222-31.288889-1.327407-2.56-2.56-5.12-3.887407-7.585185-1.327407-2.56-2.654815-5.025185-4.077037-7.490371-1.327407-2.465185-2.74963-4.93037-4.171852-7.395555-2.844444-4.93037-5.783704-9.765926-8.817778-14.601482-2.275556-3.602963-4.551111-7.111111-6.921481-10.619259-1.611852-2.37037-3.128889-4.645926-4.740741-6.921481-19.437037-27.591111-41.908148-52.527407-67.223704-73.860741-4.171852-3.508148-8.533333-7.016296-12.894815-10.334815-7.68-5.878519-15.54963-11.377778-23.608888-16.592593-2.275556-1.517037-4.645926-2.939259-7.016297-4.361481-1.137778-0.663704-2.37037-1.422222-3.508148-2.085926-5.973333-3.508148-11.946667-6.826667-18.10963-9.860741-4.93037-2.465185-9.860741-4.835556-14.98074-7.111111-2.56-1.137778-5.12-2.180741-7.68-3.223704-6.447407-2.654815-12.894815-5.12-19.531852-7.30074l-7.964445-2.56c-9.386667-2.844444-18.962963-5.30963-28.728888-7.395556-12.61037-2.56-45.037037-15.454815-55.940741-57.457778 97.46963-15.739259 171.899259-100.219259 171.899259-202.145185 0-113.114074-91.685926-204.8-204.8-204.8s-204.8 91.685926-204.8 204.8c0 101.736296 74.24 186.121481 171.52 202.050371-10.334815 42.097778-42.666667 54.897778-55.182222 57.457777C643.223704 576.379259 528.118519 761.078519 528.118519 949.001481c49.872593 0.18963 133.30963 0.474074 228.219259 0.758519 145.635556 0.379259 318.388148 0.758519 437.191111 0.094815z" /></svg>